HIERARCHY
ROOT newVegas:Hips
{
	OFFSET 0.000000 96.479958 0.000000
	CHANNELS 6 Xposition Yposition Zposition Xrotation Yrotation Zrotation
	JOINT newVegas:Pelvis
	{
		OFFSET 0.000000 0.000000 0.000000
		CHANNELS 3 Xrotation Yrotation Zrotation
		JOINT newVegas:LeftUpLeg
		{
			OFFSET 18.735201 -5.666702 -4.541200
			CHANNELS 3 Xrotation Yrotation Zrotation
			JOINT newVegas:LeftLeg
			{
				OFFSET -0.021200 -31.938179 0.493100
				CHANNELS 3 Xrotation Yrotation Zrotation
				JOINT newVegas:LeftFoot
				{
					OFFSET 0.021200 -31.938179 -4.336299
					CHANNELS 3 Xrotation Yrotation Zrotation
					JOINT newVegas:LeftToeBase
					{
						OFFSET 0.943001 -26.722000 15.023500
						CHANNELS 3 Xrotation Yrotation Zrotation
						End Site
						{
							OFFSET 0.000000 30.670183 0.000000
						}
					}
				}
				JOINT newVegas:Left_PantLeg
				{
					OFFSET 0.663870 -9.044666 -1.108900
					CHANNELS 3 Xrotation Yrotation Zrotation
					End Site
					{
						OFFSET 1.415995 20.635357 0.000000
					}
				}
			}
		}
		JOINT newVegas:RightUpLeg
		{
			OFFSET -18.735201 -5.666702 -4.541200
			CHANNELS 3 Xrotation Yrotation Zrotation
			JOINT newVegas:RightLeg
			{
				OFFSET 0.018946 -31.938133 0.493100
				CHANNELS 3 Xrotation Yrotation Zrotation
				JOINT newVegas:RightFoot
				{
					OFFSET -0.018946 -31.938126 -4.336299
					CHANNELS 3 Xrotation Yrotation Zrotation
					JOINT newVegas:RightToeBase
					{
						OFFSET -0.943001 -26.722004 15.023500
						CHANNELS 3 Xrotation Yrotation Zrotation
						End Site
						{
							OFFSET 0.000000 30.670187 0.000000
						}
					}
				}
				JOINT newVegas:Right_PantLeg
				{
					OFFSET -0.661674 -9.044716 -1.108900
					CHANNELS 3 Xrotation Yrotation Zrotation
					End Site
					{
						OFFSET -1.415958 20.635269 0.000000
					}
				}
			}
		}
	}
	JOINT newVegas:Spine
	{
		OFFSET 0.000000 10.199997 -0.299500
		CHANNELS 3 Xrotation Yrotation Zrotation
		JOINT newVegas:Spine1
		{
			OFFSET 0.000000 11.900002 -1.516600
			CHANNELS 3 Xrotation Yrotation Zrotation
			JOINT newVegas:Spine2
			{
				OFFSET 0.000000 13.600006 -2.842500
				CHANNELS 3 Xrotation Yrotation Zrotation
				JOINT newVegas:Neck
				{
					OFFSET 0.000000 9.624100 -2.890100
					CHANNELS 3 Xrotation Yrotation Zrotation
					JOINT newVegas:Head
					{
						OFFSET 0.000000 14.068802 -1.351900
						CHANNELS 3 Xrotation Yrotation Zrotation
						JOINT newVegas:Hair_Back
						{
							OFFSET 0.000000 3.231903 -17.524799
							CHANNELS 3 Xrotation Yrotation Zrotation
							End Site
							{
								OFFSET 0.000000 19.849884 0.000000
							}
						}
						JOINT newVegas:Hair_Front
						{
							OFFSET 0.000000 31.260406 4.573800
							CHANNELS 3 Xrotation Yrotation Zrotation
							JOINT newVegas:Hair_Front1
							{
								OFFSET 0.000000 2.284103 11.993300
								CHANNELS 3 Xrotation Yrotation Zrotation
								JOINT newVegas:Hair_Front2
								{
									OFFSET 0.000000 2.284103 11.993300
									CHANNELS 3 Xrotation Yrotation Zrotation
									End Site
									{
										OFFSET 0.000000 12.208862 0.000000
									}
								}
							}
						}
						JOINT newVegas:Jowel
						{
							OFFSET 0.000000 -7.458206 6.864100
							CHANNELS 3 Xrotation Yrotation Zrotation
							End Site
							{
								OFFSET 0.000000 19.849884 0.000000
							}
						}
					}
				}
				JOINT newVegas:LeftShoulder
				{
					OFFSET 15.263000 10.923401 -0.547700
					CHANNELS 3 Xrotation Yrotation Zrotation
					JOINT newVegas:LeftArm
					{
						OFFSET 25.438599 -2.830597 -13.032500
						CHANNELS 3 Xrotation Yrotation Zrotation
						JOINT newVegas:LeftForeArm
						{
							OFFSET 29.960503 0.000000 0.000000
							CHANNELS 3 Xrotation Yrotation Zrotation
							JOINT newVegas:LeftHand
							{
								OFFSET 27.849251 0.000000 0.000000
								CHANNELS 3 Xrotation Yrotation Zrotation
								JOINT newVegas:LeftHandThumb1
								{
									OFFSET 4.487587 -3.305161 6.305391
									CHANNELS 3 Xrotation Yrotation Zrotation
									JOINT newVegas:LeftHandThumb2
									{
										OFFSET 5.480453 -3.164139 3.164143
										CHANNELS 3 Xrotation Yrotation Zrotation
										JOINT newVegas:LeftHandThumb3
										{
											OFFSET 5.159721 -2.978973 2.978967
											CHANNELS 3 Xrotation Yrotation Zrotation
											End Site
											{
												OFFSET 2.494507 5.926697 1.738678
											}
										}
									}
								}
								JOINT newVegas:LeftHandIndex1
								{
									OFFSET 18.578728 -0.527832 5.208049
									CHANNELS 3 Xrotation Yrotation Zrotation
									JOINT newVegas:LeftHandIndex2
									{
										OFFSET 3.192009 0.000000 0.000000
										CHANNELS 3 Xrotation Yrotation Zrotation
										JOINT newVegas:LeftHandIndex3
										{
											OFFSET 3.835129 0.000000 0.000000
											CHANNELS 3 Xrotation Yrotation Zrotation
											End Site
											{
												OFFSET -0.034599 3.816971 0.371180
											}
										}
									}
								}
								JOINT newVegas:LeftHandMiddle1
								{
									OFFSET 18.476105 0.000000 0.000000
									CHANNELS 3 Xrotation Yrotation Zrotation
									JOINT newVegas:LeftHandMiddle2
									{
										OFFSET 3.324875 0.000000 0.000000
										CHANNELS 3 Xrotation Yrotation Zrotation
										JOINT newVegas:LeftHandMiddle3
										{
											OFFSET 4.596550 0.000000 0.000000
											CHANNELS 3 Xrotation Yrotation Zrotation
											End Site
											{
												OFFSET 0.057701 4.578827 0.399218
											}
										}
									}
								}
								JOINT newVegas:LeftHandRing1
								{
									OFFSET 17.732719 0.121887 -4.201567
									CHANNELS 3 Xrotation Yrotation Zrotation
									JOINT newVegas:LeftHandRing2
									{
										OFFSET 2.733170 0.000000 0.000000
										CHANNELS 3 Xrotation Yrotation Zrotation
										JOINT newVegas:LeftHandRing3
										{
											OFFSET 3.178268 0.000000 0.000000
											CHANNELS 3 Xrotation Yrotation Zrotation
											End Site
											{
												OFFSET 0.119102 3.170624 0.185394
											}
										}
									}
								}
								JOINT newVegas:LeftHandPinky1
								{
									OFFSET 15.989624 -0.606689 -7.535461
									CHANNELS 3 Xrotation Yrotation Zrotation
									JOINT newVegas:LeftHandPinky2
									{
										OFFSET 2.538986 0.000000 0.000000
										CHANNELS 3 Xrotation Yrotation Zrotation
										JOINT newVegas:LeftHandPinky3
										{
											OFFSET 2.593102 0.000000 0.000000
											CHANNELS 3 Xrotation Yrotation Zrotation
											End Site
											{
												OFFSET -0.150902 2.584198 0.152708
											}
										}
									}
								}
							}
							JOINT newVegas:Left_Sleeve
							{
								OFFSET 0.267448 -0.649796 0.577675
								CHANNELS 3 Xrotation Yrotation Zrotation
								End Site
								{
									OFFSET 0.000000 15.991241 0.000000
								}
							}
							JOINT newVegas:Left_CapeC
							{
								OFFSET 15.715958 -8.608795 -6.935905
								CHANNELS 3 Xrotation Yrotation Zrotation
								JOINT newVegas:Left_CapeC1
								{
									OFFSET 0.000000 -8.688499 0.000000
									CHANNELS 3 Xrotation Yrotation Zrotation
									End Site
									{
										OFFSET 0.000000 8.688499 0.000000
									}
								}
							}
						}
						JOINT newVegas:Left_CapeB
						{
							OFFSET 26.118385 -8.608795 -7.079235
							CHANNELS 3 Xrotation Yrotation Zrotation
							JOINT newVegas:Left_CapeB1
							{
								OFFSET 0.000000 -8.688499 0.000000
								CHANNELS 3 Xrotation Yrotation Zrotation
								End Site
								{
									OFFSET 0.000000 8.688499 0.000000
								}
							}
						}
						JOINT newVegas:Left_CapeA
						{
							OFFSET 5.115639 -8.608795 -10.395809
							CHANNELS 3 Xrotation Yrotation Zrotation
							JOINT newVegas:Left_CapeA1
							{
								OFFSET 0.000000 -8.688499 0.000000
								CHANNELS 3 Xrotation Yrotation Zrotation
								End Site
								{
									OFFSET 0.000000 8.688499 0.000000
								}
							}
						}
					}
				}
				JOINT newVegas:RightShoulder
				{
					OFFSET -15.263000 10.923401 -0.547700
					CHANNELS 3 Xrotation Yrotation Zrotation
					JOINT newVegas:RightArm
					{
						OFFSET -25.438599 -2.830597 -13.032500
						CHANNELS 3 Xrotation Yrotation Zrotation
						JOINT newVegas:RightForeArm
						{
							OFFSET -29.960503 0.000000 0.000000
							CHANNELS 3 Xrotation Yrotation Zrotation
							JOINT newVegas:RightHand
							{
								OFFSET -27.849251 0.000000 0.000000
								CHANNELS 3 Xrotation Yrotation Zrotation
								JOINT newVegas:RightHandThumb1
								{
									OFFSET -4.487587 -3.305161 6.305391
									CHANNELS 3 Xrotation Yrotation Zrotation
									JOINT newVegas:RightHandThumb2
									{
										OFFSET -5.480453 -3.164139 3.164143
										CHANNELS 3 Xrotation Yrotation Zrotation
										JOINT newVegas:RightHandThumb3
										{
											OFFSET -5.159721 -2.978973 2.978967
											CHANNELS 3 Xrotation Yrotation Zrotation
											End Site
											{
												OFFSET -2.494507 5.926697 1.738678
											}
										}
									}
								}
								JOINT newVegas:RightHandIndex1
								{
									OFFSET -18.578728 -0.527832 5.208049
									CHANNELS 3 Xrotation Yrotation Zrotation
									JOINT newVegas:RightHandIndex2
									{
										OFFSET -3.192009 0.000000 0.000000
										CHANNELS 3 Xrotation Yrotation Zrotation
										JOINT newVegas:RightHandIndex3
										{
											OFFSET -3.835129 0.000000 0.000000
											CHANNELS 3 Xrotation Yrotation Zrotation
											End Site
											{
												OFFSET 0.034599 3.816971 0.371180
											}
										}
									}
								}
								JOINT newVegas:RightHandMiddle1
								{
									OFFSET -18.476105 0.000000 0.000000
									CHANNELS 3 Xrotation Yrotation Zrotation
									JOINT newVegas:RightHandMiddle2
									{
										OFFSET -3.324875 0.000000 0.000000
										CHANNELS 3 Xrotation Yrotation Zrotation
										JOINT newVegas:RightHandMiddle3
										{
											OFFSET -4.596550 0.000000 0.000000
											CHANNELS 3 Xrotation Yrotation Zrotation
											End Site
											{
												OFFSET -0.057701 4.578827 0.399218
											}
										}
									}
								}
								JOINT newVegas:RightHandRing1
								{
									OFFSET -17.732719 0.121887 -4.201567
									CHANNELS 3 Xrotation Yrotation Zrotation
									JOINT newVegas:RightHandRing2
									{
										OFFSET -2.733170 0.000000 0.000000
										CHANNELS 3 Xrotation Yrotation Zrotation
										JOINT newVegas:RightHandRing3
										{
											OFFSET -3.178268 0.000000 0.000000
											CHANNELS 3 Xrotation Yrotation Zrotation
											End Site
											{
												OFFSET -0.119102 3.170624 0.185394
											}
										}
									}
								}
								JOINT newVegas:RightHandPinky1
								{
									OFFSET -15.989624 -0.606689 -7.535461
									CHANNELS 3 Xrotation Yrotation Zrotation
									JOINT newVegas:RightHandPinky2
									{
										OFFSET -2.538986 0.000000 0.000000
										CHANNELS 3 Xrotation Yrotation Zrotation
										JOINT newVegas:RightHandPinky3
										{
											OFFSET -2.593102 0.000000 0.000000
											CHANNELS 3 Xrotation Yrotation Zrotation
											End Site
											{
												OFFSET 0.150902 2.584198 0.152708
											}
										}
									}
								}
							}
							JOINT newVegas:Right_CapeC
							{
								OFFSET -15.715958 -8.608795 -6.935905
								CHANNELS 3 Xrotation Yrotation Zrotation
								JOINT newVegas:Right_CapeC1
								{
									OFFSET 0.000000 -8.688499 0.000000
									CHANNELS 3 Xrotation Yrotation Zrotation
									End Site
									{
										OFFSET 0.000000 8.688499 0.000000
									}
								}
							}
							JOINT newVegas:Right_Sleeve
							{
								OFFSET -0.267448 -0.649994 0.577675
								CHANNELS 3 Xrotation Yrotation Zrotation
								End Site
								{
									OFFSET 0.000000 15.991302 0.000000
								}
							}
						}
						JOINT newVegas:Right_CapeA
						{
							OFFSET -5.115540 -8.608795 -10.395824
							CHANNELS 3 Xrotation Yrotation Zrotation
							JOINT newVegas:Right_CapeA1
							{
								OFFSET 0.000000 -8.688499 0.000000
								CHANNELS 3 Xrotation Yrotation Zrotation
								End Site
								{
									OFFSET 0.000000 8.688499 0.000000
								}
							}
						}
						JOINT newVegas:Right_CapeB
						{
							OFFSET -26.118187 -8.608795 -7.079266
							CHANNELS 3 Xrotation Yrotation Zrotation
							JOINT newVegas:Right_CapeB1
							{
								OFFSET 0.000000 -8.688499 0.000000
								CHANNELS 3 Xrotation Yrotation Zrotation
								End Site
								{
									OFFSET 0.000000 8.688499 0.000000
								}
							}
						}
					}
				}
				JOINT newVegas:Left_Collar
				{
					OFFSET 18.625099 8.655502 8.828100
					CHANNELS 3 Xrotation Yrotation Zrotation
					JOINT newVegas:Left_Collar1
					{
						OFFSET 14.783401 10.540405 -1.259500
						CHANNELS 3 Xrotation Yrotation Zrotation
						End Site
						{
							OFFSET 0.000000 18.199875 0.000000
						}
					}
				}
				JOINT newVegas:Collar_Back
				{
					OFFSET 0.000000 15.630707 -20.132601
					CHANNELS 3 Xrotation Yrotation Zrotation
					End Site
					{
						OFFSET 0.000000 22.523010 0.000000
					}
				}
				JOINT newVegas:Left_Peck
				{
					OFFSET 17.239599 -5.132599 25.482599
					CHANNELS 3 Xrotation Yrotation Zrotation
					End Site
					{
						OFFSET 0.000000 22.523010 0.000000
					}
				}
				JOINT newVegas:Right_Peck
				{
					OFFSET -17.239599 -5.132202 25.482599
					CHANNELS 3 Xrotation Yrotation Zrotation
					End Site
					{
						OFFSET 0.000000 22.523010 0.000000
					}
				}
				JOINT newVegas:Right_Collar
				{
					OFFSET -18.625099 8.655792 8.828100
					CHANNELS 3 Xrotation Yrotation Zrotation
					JOINT newVegas:Right_Collar1
					{
						OFFSET -14.783401 10.539993 -1.259500
						CHANNELS 3 Xrotation Yrotation Zrotation
						End Site
						{
							OFFSET 0.000000 18.199631 0.000000
						}
					}
				}
			}
		}
		JOINT newVegas:Belly
		{
			OFFSET 0.000000 -6.540398 9.014299
			CHANNELS 3 Xrotation Yrotation Zrotation
			End Site
			{
				OFFSET 0.000000 11.566666 0.000000
			}
		}
	}
	JOINT newVegas:ElvisFacialAnim_Joint
	{
		OFFSET 1.000000 -95.330101 -8.825800
		CHANNELS 3 Xrotation Yrotation Zrotation
		End Site
		{
			OFFSET 0.000000 35.315800 0.000000
		}
	}
}
MOTION
Frames: 4
Frame Time: 0.033333
-0.471765 95.295219 4.812040 -2.356975 -9.966124 -3.733374 0.000000 -0.000000 0.000000 -5.660418 9.404246 10.690881 26.666177 5.350218 -0.531348 -14.591169 3.874885 -11.808586 -0.000000 -0.000000 0.000000 -0.000002 0.000001 -0.000000 -5.102136 -10.737012 -10.002939 14.969169 1.553728 1.387241 -0.452129 1.792518 14.062507 -0.000000 -0.000001 0.000000 -0.000000 -0.000000 -0.000000 1.166140 -1.748208 -2.599851 -3.971513 -0.353444 -0.550450 -3.969352 -0.349609 -0.552777 -1.872863 1.011818 -2.766911 -1.872847 1.011811 -2.766901 -0.000000 0.000001 0.000001 -1.872874 1.011831 -2.766916 -1.872869 1.011798 -2.766911 -0.000001 0.000001 0.000000 -0.000000 0.000001 -0.000000 2.839036 1.344951 -21.930358 0.547455 -14.475876 -43.413758 -0.000001 -4.985210 0.000001 -8.921790 -2.896945 8.419246 -4.259448 -4.051563 21.939165 18.302972 13.404821 -14.228345 -0.000000 -0.000000 -0.000005 -1.633074 -2.386252 -18.339843 0.890950 3.107465 -31.989707 0.000002 -0.000001 -0.000000 0.201576 3.807335 -21.084592 0.817895 2.987486 -30.615544 -0.000001 0.000001 0.000003 1.948762 7.323995 -28.223206 1.042695 3.337762 -34.688417 0.000005 -0.000001 0.000001 -6.449253 9.722480 -28.203040 0.952430 3.203637 -33.106545 0.000000 -0.000003 -0.000000 0.000000 0.000001 0.000001 0.000000 0.000001 0.000001 -0.000000 0.000001 0.000001 -0.000002 -0.000001 0.000001 -0.000002 -0.000001 0.000001 -0.000002 -0.000001 0.000001 -0.000001 -0.000001 0.000000 2.180192 -2.494137 9.719247 5.722137 -19.714076 72.379419 -0.000009 9.515661 0.000015 16.771856 6.279731 -7.452232 -3.436999 3.011801 -14.080151 17.634182 -15.307243 5.809247 0.000001 -0.000001 -0.000002 -1.197531 6.170359 8.532616 0.920927 -2.782206 36.623573 0.000001 0.000001 -0.000001 -1.768477 1.083642 23.065243 0.833383 -2.660523 34.780034 0.000002 0.000002 -0.000003 0.164536 -3.744289 30.317615 0.873548 -2.717364 35.635901 0.000000 0.000000 0.000007 -10.095326 -16.427611 23.762565 0.656427 -2.385901 30.762079 -0.000002 0.000001 0.000002 0.000001 0.000001 -0.000000 -0.000002 0.000000 0.000001 0.000001 0.000001 -0.000000 -0.000003 0.000001 0.000000 -0.000003 0.000001 0.000001 -0.000003 0.000001 0.000000 -0.000003 0.000001 0.000001 -0.000001 0.000000 0.000000 -0.000001 0.000000 0.000000 -0.000001 0.000000 0.000000 -0.000001 0.000000 0.000000 -0.000001 0.000000 0.000000 -0.000001 0.000000 0.000000 -0.000001 0.000000 0.000000 0.000000 0.000000 -0.000000 0.000000 -0.000000 0.000000 
-0.270284 95.549950 4.654199 -2.211477 -10.494417 -3.949332 0.000000 0.000000 0.000000 -7.498772 9.382900 11.769170 28.721943 5.064858 -0.763475 -13.218155 3.582598 -13.148455 0.000000 0.000001 0.000001 -0.000001 0.000000 -0.000001 -7.528903 -10.109955 -10.253446 16.671481 1.656475 1.266423 2.713049 1.992201 14.424830 0.000001 -0.000001 0.000001 0.000001 0.000001 -0.000000 1.470943 -1.929017 -2.530962 -4.074217 -0.402727 -0.579040 -4.071647 -0.398149 -0.581707 -2.069598 1.221057 -3.022802 -2.069593 1.221057 -3.022805 -0.000000 -0.000000 0.000002 -2.069537 1.221085 -3.022809 -2.069688 1.221026 -3.022802 -0.000000 0.000000 0.000001 -0.000000 -0.000000 0.000001 2.948201 1.935305 -22.196325 2.115130 -16.553853 -43.249499 0.000002 -7.004082 -0.000007 -6.925303 -1.735677 4.949568 -4.259453 -4.051565 21.939165 18.046541 12.916401 -13.926283 -0.000001 -0.000000 -0.000003 -1.833930 -2.864950 -17.687209 0.878418 3.087356 -31.757880 -0.000004 0.000001 -0.000000 0.093056 3.516644 -20.899158 0.816023 2.984325 -30.579662 0.000004 0.000001 0.000001 1.803478 7.078581 -27.952855 1.048509 3.346127 -34.788127 0.000002 0.000001 -0.000001 -6.661948 9.421017 -27.792583 0.953739 3.205645 -33.129990 0.000000 -0.000003 -0.000001 -0.000002 0.000001 0.000001 -0.000002 0.000001 0.000001 -0.000003 0.000001 0.000001 0.000000 0.000001 -0.000000 0.000000 0.000000 -0.000000 0.000000 0.000001 -0.000000 0.000001 0.000002 -0.000001 2.119113 -2.678903 8.733085 9.958579 -17.193137 73.621557 -0.000003 12.891265 0.000017 17.298265 10.774830 -2.771381 -3.437001 3.011803 -14.080150 17.755265 -15.626416 5.998967 0.000000 -0.000001 0.000001 -1.213143 6.629383 8.200927 0.914566 -2.773634 36.492222 -0.000000 -0.000000 0.000001 -1.933550 1.226572 24.026112 0.835865 -2.664093 34.833500 0.000001 0.000000 -0.000003 -0.015209 -3.474167 31.109326 0.934920 -2.800907 36.910844 -0.000002 0.000001 0.000002 -10.231069 -16.255690 23.170148 0.698149 -2.454558 31.750087 0.000001 -0.000000 0.000002 0.000000 0.000000 0.000001 0.000000 0.000000 0.000001 0.000000 0.000000 0.000001 0.000000 -0.000001 -0.000001 0.000000 0.000000 -0.000000 0.000000 -0.000001 -0.000001 0.000000 -0.000000 -0.000000 -0.000001 -0.000001 -0.000001 -0.000001 -0.000001 -0.000001 -0.000001 -0.000001 -0.000001 -0.000001 -0.000001 -0.000001 -0.000001 -0.000001 -0.000001 -0.000001 -0.000001 -0.000001 -0.000001 -0.000001 -0.000001 0.000000 -0.000001 -0.000000 0.000000 0.000000 0.000000 
-0.051294 95.610077 4.470038 -1.929120 -10.619065 -3.943378 0.000000 0.000000 -0.000000 -9.470001 9.356945 12.695873 30.740342 4.426670 -0.996020 -12.191524 3.110084 -14.269930 0.000000 -0.000001 0.000000 -0.000000 -0.000000 -0.000000 -9.924582 -9.592799 -10.707319 18.624891 1.797166 1.225020 4.950201 1.982193 14.720043 0.000001 -0.000003 0.000000 -0.000000 -0.000001 0.000001 1.710005 -2.132947 -2.660205 -4.139937 -0.451849 -0.660445 -4.136795 -0.446557 -0.663373 -2.258325 1.378061 -3.204412 -2.258317 1.378063 -3.204415 -0.000001 -0.000000 0.000001 -2.258323 1.378064 -3.204417 -2.258313 1.378063 -3.204412 -0.000001 -0.000000 0.000001 -0.000001 -0.000000 0.000001 3.031810 2.300463 -22.529580 5.099895 -19.094491 -42.277986 0.000003 -10.064980 0.000006 -6.203337 -2.716024 0.713251 -4.259454 -4.051566 21.939167 17.992451 12.808871 -13.859781 0.000003 -0.000001 -0.000001 -1.905387 -2.983620 -17.883611 0.879957 3.089845 -31.786420 -0.000003 -0.000000 -0.000000 0.055909 3.431589 -21.129919 0.817762 2.987260 -30.612986 -0.000001 0.000000 -0.000001 1.751630 6.969103 -28.120212 1.058517 3.360474 -34.959319 -0.000001 -0.000000 -0.000004 -6.717652 9.350258 -27.851327 0.959862 3.214983 -33.239273 -0.000000 -0.000003 0.000001 0.000001 0.000001 0.000001 0.000001 0.000001 0.000001 0.000000 0.000001 0.000001 0.000001 -0.000003 0.000001 0.000001 -0.000003 0.000000 0.000001 -0.000003 0.000001 0.000000 -0.000002 -0.000000 2.077819 -2.849411 8.076896 14.069092 -14.539173 74.657369 0.000005 15.795321 0.000004 14.075946 16.086649 1.619692 -3.436999 3.011804 -14.080152 17.659736 -15.358643 5.841243 0.000001 -0.000002 -0.000003 -1.373723 6.278650 9.460003 0.933750 -2.799353 36.886925 -0.000001 -0.000000 -0.000002 -1.826572 0.767172 24.922341 0.851061 -2.685764 35.159058 0.000001 -0.000001 0.000001 0.085507 -3.664703 31.680996 0.983365 -2.864191 37.891226 -0.000000 0.000002 0.000003 -10.179794 -16.328266 22.914318 0.722996 -2.494252 32.325772 -0.000000 0.000002 0.000001 0.000002 0.000001 -0.000001 0.000002 0.000001 -0.000001 0.000002 0.000001 -0.000001 -0.000001 0.000001 -0.000000 -0.000000 0.000001 0.000001 -0.000001 0.000001 -0.000000 -0.000000 0.000001 0.000001 -0.000001 -0.000000 -0.000000 -0.000001 -0.000000 -0.000000 -0.000001 -0.000000 -0.000000 -0.000001 -0.000000 -0.000000 -0.000001 -0.000000 -0.000000 -0.000001 -0.000000 -0.000000 -0.000001 -0.000000 -0.000000 0.000000 -0.000000 0.000000 0.000000 0.000000 -0.000000 
0.162562 95.563934 4.283631 -1.644501 -10.272062 -3.862317 -0.000000 0.000001 -0.000000 -10.787287 9.411525 13.267401 31.781656 3.555025 -1.108628 -11.893987 2.743418 -14.974925 -0.000000 -0.000000 0.000000 -0.000001 0.000000 -0.000000 -11.355324 -9.329312 -11.122923 19.825830 1.968533 1.250317 5.977732 1.791260 15.045956 0.000001 -0.000000 0.000000 -0.000000 -0.000001 0.000001 1.858909 -2.332454 -2.846232 -4.156585 -0.500923 -0.775273 -4.152696 -0.495258 -0.778270 -2.391119 1.475957 -3.330059 -2.391118 1.475960 -3.330053 -0.000000 0.000000 -0.000001 -2.391118 1.475959 -3.330050 -2.391063 1.475961 -3.330063 -0.000000 -0.000001 0.000000 -0.000000 0.000000 -0.000001 3.057059 2.298617 -22.834673 8.430401 -21.495937 -41.026518 -0.000002 -13.294750 -0.000004 -7.145243 -4.619971 -2.215445 -4.259454 -4.051568 21.939172 18.004507 12.832057 -13.873424 -0.000001 -0.000001 -0.000001 -1.943049 -2.841729 -18.490471 0.889981 3.105918 -31.971876 0.000004 0.000003 0.000005 0.059139 3.459553 -21.496227 0.821490 2.993531 -30.684263 -0.000001 0.000001 0.000002 1.769731 6.980900 -28.401969 1.068592 3.374819 -35.130924 -0.000001 0.000001 -0.000001 -6.669849 9.428782 -28.117076 0.968035 3.227392 -33.384653 0.000003 -0.000005 -0.000003 0.000000 0.000002 -0.000000 0.000000 0.000002 -0.000000 -0.000001 0.000002 -0.000000 -0.000001 0.000001 -0.000001 -0.000001 0.000000 -0.000002 -0.000001 0.000001 -0.000001 -0.000002 0.000002 -0.000001 2.050575 -2.982904 7.616712 17.130003 -12.742597 75.813290 -0.000001 18.085178 0.000007 9.536274 18.642177 4.423155 -3.437001 3.011804 -14.080150 17.529576 -15.017277 5.639030 -0.000000 -0.000003 -0.000001 -1.499449 5.885573 10.648752 0.949369 -2.820031 37.205680 -0.000001 0.000001 0.000001 -1.689836 0.347137 25.478286 0.869322 -2.711471 35.546910 0.000000 0.000001 0.000000 0.234238 -3.913799 31.930004 1.012803 -2.901572 38.476409 0.000001 -0.000001 -0.000002 -10.027571 -16.514791 22.955692 0.732824 -2.509699 32.550714 0.000001 -0.000000 -0.000000 0.000000 0.000000 0.000000 -0.000000 0.000000 -0.000001 0.000000 0.000000 0.000000 -0.000001 0.000000 -0.000000 -0.000001 0.000000 -0.000000 -0.000001 0.000000 -0.000000 -0.000001 -0.000000 -0.000000 -0.000000 0.000001 -0.000000 -0.000000 0.000001 -0.000000 -0.000000 0.000001 -0.000000 -0.000000 0.000001 -0.000000 -0.000000 0.000001 -0.000000 -0.000000 0.000001 -0.000000 -0.000000 0.000001 -0.000000 -0.000000 0.000001 0.000000 -0.000000 0.000001 -0.000000 
